<svg xmlns="http://www.w3.org/2000/svg" viewBox="0 0 1012 1000"><defs><style>.cls-1{fill:#fff;}</style></defs><title>Artboard 6</title><g id="Layer_1" data-name="Layer 1"><path class="cls-1" d="M918.18,66.16C891.58,81.38,805.57,134.84,799,193.38c0,0-4.36,30.5-21.93,56.79s-69.13,46.89-82.54,52.67c-10.6,4.54-39.72,42.24-51.49,57.92h0c-3.65.22-7.26.5-10.79.83-79.43,7.35-132,40.28-184.15,64.3a2.18,2.18,0,0,0,1.51,4.08c38.78-11,120.57-54.17,243.21-45.58a5.33,5.33,0,0,1,1.84.48l39,18.21.21.08c14.06,4.55,14.07,24.49,0,29l-228,73.06a15.26,15.26,0,0,1-9.31,0L269.35,432.16c-14.11-4.53-14.1-24.43-.06-29l.2-.08L496.31,296.7a2.37,2.37,0,0,1,.34-.13,15.26,15.26,0,0,1,8.88,0,2,2,0,0,1,.34.13l115.29,53.85a5.08,5.08,0,0,0,6.2-1.52L756.26,179.9C800.31,122.05,876.42,66.71,916.83,62A2.24,2.24,0,0,1,918.18,66.16Z"/><path class="cls-1" d="M646.64,573.35a7,7,0,0,1-.85,3.35c-4.67,8.61-31.25,45.49-144.16,45.49S361.37,585.4,356.46,576.74a7,7,0,0,1-.91-3.47V502.86a7,7,0,0,1,9.13-6.73L488.8,534.75a39.68,39.68,0,0,0,23.51,0l125.2-38.66a7.05,7.05,0,0,1,9.13,6.73Z"/><path class="cls-1" d="M104.61,774.72a45.6,45.6,0,0,1-7,23,42.42,42.42,0,0,1-18.06,15.49A61.54,61.54,0,0,1,53,818.74q-24.63,0-38.79-16T0,757.39v-6.18q0-18.36,6.39-32.14A48.47,48.47,0,0,1,24.8,697.79q12-7.51,27.8-7.51,22.74,0,36.56,12t15.7,33h-30q-.35-11.41-5.75-16.39t-16.48-5q-11.24,0-16.47,8.41t-5.49,26.86V758q0,20,5,28.57T53,795.14q10.38,0,15.87-4.89t5.84-15.53Z"/><path class="cls-1" d="M148,817H119V685.22h29Z"/><path class="cls-1" d="M218.14,817a32.69,32.69,0,0,1-2.75-8.33q-8,10-22.31,10-13.12,0-22.31-7.93a25.3,25.3,0,0,1-9.18-20q0-15.11,11.15-22.82t32.44-7.73h8.92v-4.91q0-12.85-11.07-12.85-10.29,0-10.29,10.18H163.82q0-13.46,11.45-21.86t29.22-8.4q17.77,0,28.06,8.67t10.56,23.77V796q.16,12.79,3.95,19.57V817ZM200,798.15a16.1,16.1,0,0,0,9-2.32,14.45,14.45,0,0,0,5.1-5.23V775.75h-8.41q-15.09,0-15.1,13.56a8.29,8.29,0,0,0,2.66,6.39A9.64,9.64,0,0,0,200,798.15Z"/><path class="cls-1" d="M307.73,790.94q0-3.69-3.86-5.92t-14.68-4.64a66.93,66.93,0,0,1-17.85-6.3,30,30,0,0,1-10.72-9.49,22.62,22.62,0,0,1-3.69-12.78q0-12.79,10.55-21.07t27.63-8.28q18.38,0,29.52,8.32t11.16,21.89h-29q0-11.16-11.75-11.16a11.65,11.65,0,0,0-7.64,2.53,7.84,7.84,0,0,0-3.09,6.31q0,3.85,3.78,6.26t12.05,3.95a104.49,104.49,0,0,1,14.55,3.69q20.94,7.21,20.94,25.83,0,12.7-11.29,20.68t-29.22,8a50.52,50.52,0,0,1-21.28-4.29,35.63,35.63,0,0,1-14.59-11.67A26.4,26.4,0,0,1,254,787.25h27q.16,6.43,4.29,9.4a17.7,17.7,0,0,0,10.56,3q5.91,0,8.88-2.41A7.69,7.69,0,0,0,307.73,790.94Z"/><path class="cls-1" d="M397.75,790.94q0-3.69-3.86-5.92t-14.68-4.64a66.93,66.93,0,0,1-17.85-6.3,30,30,0,0,1-10.73-9.49,22.62,22.62,0,0,1-3.69-12.78q0-12.79,10.56-21.07t27.63-8.28q18.36,0,29.52,8.32t11.16,21.89h-29q0-11.16-11.75-11.16a11.63,11.63,0,0,0-7.64,2.53,7.84,7.84,0,0,0-3.09,6.31q0,3.85,3.78,6.26t12,3.95a104.49,104.49,0,0,1,14.55,3.69q20.94,7.21,20.94,25.83,0,12.7-11.29,20.68t-29.22,8a50.52,50.52,0,0,1-21.28-4.29,35.56,35.56,0,0,1-14.59-11.67A26.4,26.4,0,0,1,344,787.25h27q.17,6.43,4.29,9.4a17.67,17.67,0,0,0,10.55,3q5.93,0,8.89-2.41A7.69,7.69,0,0,0,397.75,790.94Z"/><path class="cls-1" d="M530.67,772.83h-16.3V817H484.25V692.08h49.17q22.22,0,34.75,9.86T580.7,729.8q0,13-5.28,21.6T558.9,765.29L585,815.74V817H552.73Zm-16.3-23.17h19q8.58,0,12.91-4.51t4.34-12.61q0-8.09-4.38-12.69t-12.87-4.6h-19Z"/><path class="cls-1" d="M642.49,818.74q-21.37,0-34.59-12.74t-13.21-33.17v-2.4q0-14.25,5.28-25.14a38.58,38.58,0,0,1,15.4-16.87q10.13-6,24-6,19.56,0,30.89,12.14t11.33,33.86V779.7h-57.5A20.87,20.87,0,0,0,630.9,792q5.24,4.46,13.56,4.46,13.72,0,21.45-9.61l13.22,15.62a36.89,36.89,0,0,1-15.32,11.88A51.72,51.72,0,0,1,642.49,818.74Zm-3.26-74q-12.71,0-15.11,16.82H653.3v-2.23q.16-6.95-3.52-10.77T639.23,744.77Z"/><path class="cls-1" d="M779.45,771.29q0,21.62-9.74,34.54T743.4,818.74a26.75,26.75,0,0,1-21-9.35v43.33H693.46V724.18h27l.86,8.58q8.32-10.31,21.88-10.3,17.16,0,26.69,12.66t9.53,34.8Zm-28.92-1.8q0-24.72-14.42-24.72-10.3,0-13.73,7.38v36.56q3.78,7.72,13.9,7.72,13.82,0,14.25-23.85Z"/><path class="cls-1" d="M788.54,769.74A54.7,54.7,0,0,1,794,745a38.62,38.62,0,0,1,15.53-16.69q10.13-5.84,23.77-5.84,20.85,0,32.87,12.92t12,35.14v1q0,21.71-12.06,34.45t-32.65,12.74q-19.81,0-31.84-11.88t-13-32.23Zm28.92,1.81q0,12.87,4,18.87t11.93,6q15.45,0,15.79-23.77v-2.92q0-25-16-25-14.5,0-15.7,21.54Z"/><path class="cls-1" d="M947,750.35l-9.53-.69q-13.63,0-17.5,8.58V817H891.09V724.18h27.12l.94,11.92q7.29-13.64,20.34-13.64a28,28,0,0,1,8.06,1Z"/><path class="cls-1" d="M995.44,701.09v23.09h15.27v20.08H995.44v42.47c0,3.49.63,5.93,1.89,7.3s3.74,2.06,7.46,2.06a41.66,41.66,0,0,0,7.21-.52v20.68a53.35,53.35,0,0,1-16.3,2.49q-14.94,0-22.06-7t-7.12-21.37V744.26H954.68V724.18h11.84V701.09Z"/></g></svg>